<svg viewBox="0 0 25 24" fill="none" xmlns="http://www.w3.org/2000/svg">
<path fill-rule="evenodd" clip-rule="evenodd" d="M10.2212 18C9.86919 18 9.5432 17.8193 9.3622 17.5235C8.4442 16.0196 7.26321 14.6672 5.85422 13.5041C5.43223 13.1555 5.38023 12.5393 5.73622 12.1273C6.09322 11.7142 6.72322 11.6634 7.14521 12.012C8.28921 12.9563 9.3002 14.0139 10.1622 15.1681C11.7991 12.5833 15.0171 8.48489 20.0641 6.09731C20.5611 5.86393 21.1591 6.06411 21.4001 6.55042C21.6401 7.03574 21.4331 7.6197 20.9361 7.85504C15.3601 10.4926 12.2021 15.466 11.1042 17.4824C10.9342 17.793 10.6062 17.9912 10.2452 18H10.2212Z" fill="currentColor"/>
</svg>
