<svg viewBox="0 0 24 24" fill="none" xmlns="http://www.w3.org/2000/svg">
<path fill-rule="evenodd" clip-rule="evenodd" d="M19.5196 14.405C19.7608 14.0881 19.8666 13.6973 19.8177 13.3025C19.7679 12.9066 19.5684 12.5538 19.252 12.3086L16.6838 10.3507C16.5648 10.2594 16.4986 10.1158 16.5068 9.96608L16.6828 6.70662C16.7021 6.37022 16.6136 6.05432 16.4132 5.76304C15.9441 5.10151 15.0283 4.94766 14.3731 5.41535L11.6889 7.30252C11.5657 7.3897 11.407 7.40918 11.2635 7.35585L8.23541 6.2174C8.22828 6.21432 8.22015 6.21124 8.21302 6.20919C7.92202 6.11483 7.61982 6.1056 7.32169 6.18458C6.53617 6.41534 6.07524 7.24611 6.29705 8.042L7.20874 11.1681C7.25046 11.3148 7.21892 11.4768 7.12124 11.5958L5.07299 14.1609C4.86135 14.4276 4.74637 14.7455 4.7423 15.0789C4.73009 15.8881 5.37723 16.5588 6.18615 16.5742L9.43912 16.6255C9.58364 16.6255 9.71897 16.6994 9.80037 16.8235L11.5586 19.5373C11.7397 19.8234 12.0124 20.0347 12.3024 20.1229C12.4642 20.1824 12.6311 20.2111 12.799 20.2111C13.0137 20.2111 13.2284 20.1629 13.4298 20.0665C13.789 19.8922 14.0607 19.5855 14.1899 19.2081L15.2827 16.1178C15.3346 15.9691 15.4516 15.8573 15.6032 15.8163L18.7473 14.9322C19.0689 14.8358 19.3365 14.6512 19.5196 14.405Z" fill="currentColor"/>
<path fill-rule="evenodd" clip-rule="evenodd" d="M11.0803 4.93331C11.5016 4.93331 11.8435 4.5887 11.8435 4.16409V2.76923C11.8435 2.34461 11.5016 2 11.0803 2C10.6591 2 10.3172 2.34461 10.3172 2.76923V4.16409C10.3172 4.5887 10.6591 4.93331 11.0803 4.93331Z" fill="currentColor"/>
<path fill-rule="evenodd" clip-rule="evenodd" d="M19.3198 9.64116C19.3971 9.64116 19.4755 9.62885 19.5528 9.60423L20.4706 9.3068C20.8715 9.17654 21.0923 8.74371 20.9631 8.33858C20.8328 7.93346 20.4014 7.71294 20.0036 7.84217L19.0868 8.13961C18.6849 8.26986 18.4641 8.70268 18.5933 9.1068C18.6981 9.43398 18.9972 9.64116 19.3198 9.64116Z" fill="currentColor"/>
<path fill-rule="evenodd" clip-rule="evenodd" d="M4.00551 10.5226H2.76313C2.34188 10.5226 2 10.8672 2 11.2918C2 11.7164 2.34188 12.061 2.76313 12.061H4.00551C4.42676 12.061 4.76864 11.7164 4.76864 11.2918C4.76864 10.8672 4.42676 10.5226 4.00551 10.5226Z" fill="currentColor"/>
<path fill-rule="evenodd" clip-rule="evenodd" d="M9.01209 18.7361C8.61425 18.6038 8.18079 18.8233 8.04851 19.2264L7.72698 20.211C7.70154 20.291 7.68933 20.371 7.68933 20.451C7.68832 20.774 7.89182 21.0756 8.21335 21.1822C8.29271 21.2079 8.3731 21.2202 8.45246 21.2202C8.77298 21.2202 9.07111 21.0151 9.17693 20.692L9.49847 19.7074C9.52391 19.6274 9.53714 19.5474 9.53714 19.4674C9.53714 19.1433 9.33363 18.8428 9.01209 18.7361Z" fill="currentColor"/>
<path fill-rule="evenodd" clip-rule="evenodd" d="M18.4652 18.2554C18.1783 17.9426 17.6929 17.9293 17.3856 18.2164C17.0784 18.5067 17.0611 18.9939 17.348 19.3036L19.615 21.7549C19.7646 21.9179 19.9701 22 20.1736 22C20.3598 22 20.547 21.9313 20.6936 21.7938C21.0019 21.5036 21.0192 21.0164 20.7322 20.7067L18.4652 18.2554Z" fill="currentColor"/>
</svg>
