<svg viewBox="0 0 40 40" fill="none" xmlns="http://www.w3.org/2000/svg">
<rect width="100%" height="100%" rx="20" fill="#F4B63F"/>
<path d="M29.5993 29.0662C28.7901 29.2417 27.9565 29.0484 27.2953 28.5283C26.5872 27.9694 26.1917 27.1326 26.2109 26.2337L26.3224 21.0061C26.3423 20.1043 26.7755 19.2861 27.5126 18.7602C28.2415 18.2387 29.1477 18.0964 29.9963 18.371C32.4042 19.1441 33.9573 21.382 33.86 23.9381C33.7817 26.0275 32.4846 27.9146 30.5571 28.7475C30.2766 28.8678 29.9964 28.9656 29.7187 29.0377L29.715 29.0385C29.6761 29.0482 29.6384 29.0577 29.5993 29.0662Z" fill="white"/>
<path d="M15.4929 32.1207L15.4858 32.122C15.2084 32.1716 14.9114 32.1977 14.6062 32.2044C12.5043 32.2451 10.5433 31.0645 9.60542 29.1954C8.45838 26.9105 8.94543 24.2316 10.8166 22.5293C11.4767 21.9288 12.3605 21.683 13.2381 21.8535C14.1268 22.0269 14.8613 22.592 15.2522 23.4073L17.5196 28.1164C17.9084 28.9282 17.896 29.8521 17.4815 30.6531C17.0966 31.4013 16.4179 31.9225 15.6075 32.0983C15.5695 32.1065 15.5321 32.1134 15.4929 32.1207Z" fill="white"/>
<path opacity="0.4" fill-rule="evenodd" clip-rule="evenodd" d="M26.2394 13.9225L26.2634 13.9173C26.8567 13.7887 27.3633 13.437 27.6938 12.9252C28.3608 11.8871 28.0894 10.4829 27.0836 9.79428L26.815 9.61595C21.2025 6.00479 13.6989 7.63049 10.0855 13.2447L9.91287 13.5214C9.28561 14.5601 9.61863 15.9497 10.6555 16.617C11.1744 16.9499 11.7697 17.0442 12.3895 16.9217C13.0016 16.7823 13.5253 16.4058 13.858 15.8618C13.8606 15.8591 13.9094 15.7814 13.9304 15.748L13.9398 15.733C15.0303 14.0388 16.7097 12.8724 18.6701 12.4473L18.6777 12.4456C20.6358 12.0224 22.6427 12.3908 24.3289 13.4804L24.4584 13.5659C24.9891 13.9227 25.6208 14.0501 26.2394 13.9225ZM27.0278 13.5983C27.2909 13.426 27.5173 13.1983 27.6938 12.9252C27.9113 12.5866 28.029 12.2092 28.054 11.8303C29.3323 13.1971 30.2767 14.9301 30.7032 16.8966L31.1331 18.8795C30.7805 18.6725 30.4001 18.5012 29.9956 18.3713C29.6715 18.2665 29.3391 18.2224 29.0113 18.237L28.8097 17.3072C28.5044 15.8992 27.8762 14.64 27.0278 13.5983ZM10.6555 16.617C10.3179 16.3997 10.055 16.106 9.87546 15.7727C9.25995 17.6062 9.15127 19.5759 9.56417 21.4801L9.99387 23.4618C10.2286 23.128 10.5034 22.8151 10.8171 22.5297C11.0695 22.3001 11.3546 22.1225 11.6594 22L11.4577 21.0695C11.1605 19.6991 11.1916 18.2885 11.5447 16.9497C11.2318 16.9047 10.9327 16.7948 10.6555 16.617Z" fill="white"/>
</svg>
