<svg viewBox="0 0 40 40" fill="none" xmlns="http://www.w3.org/2000/svg">
<path d="M25.9184 22.32C25.6594 22.571 25.5404 22.934 25.5994 23.29L26.4884 28.21C26.5634 28.627 26.3874 29.049 26.0384 29.29C25.6964 29.54 25.2414 29.57 24.8684 29.37L20.4394 27.06C20.2854 26.978 20.1144 26.934 19.9394 26.929H19.6684C19.5744 26.943 19.4824 26.973 19.3984 27.019L14.9684 29.34C14.7494 29.45 14.5014 29.489 14.2584 29.45C13.6664 29.338 13.2714 28.774 13.3684 28.179L14.2584 23.259C14.3174 22.9 14.1984 22.535 13.9394 22.28L10.3284 18.78C10.0264 18.487 9.92139 18.047 10.0594 17.65C10.1934 17.254 10.5354 16.965 10.9484 16.9L15.9184 16.179C16.2964 16.14 16.6284 15.91 16.7984 15.57L18.9884 11.08C19.0404 10.98 19.1074 10.888 19.1884 10.81L19.2784 10.74C19.3254 10.688 19.3794 10.645 19.4394 10.61L19.5484 10.57L19.7184 10.5H20.1394C20.5154 10.539 20.8464 10.764 21.0194 11.1L23.2384 15.57C23.3984 15.897 23.7094 16.124 24.0684 16.179L29.0384 16.9C29.4584 16.96 29.8094 17.25 29.9484 17.65C30.0794 18.051 29.9664 18.491 29.6584 18.78L25.9184 22.32Z" fill="currentColor"/>
<rect x="0.5" y="0.5" width="39" height="39" rx="19.5" stroke="currentColor"/>
</svg>
