<svg viewBox="0 0 40 40" fill="none" xmlns="http://www.w3.org/2000/svg">
<rect width="100%" height="100%" rx="20" fill="#3F7DF4"/>
<path opacity="0.4" d="M35 20.0002C35 28.2862 28.2845 35.0002 20 35.0002C11.7155 35.0002 5 28.2862 5 20.0002C5 11.7172 11.7155 5.00024 20 5.00024C28.2845 5.00024 35 11.7172 35 20.0002Z" fill="white"/>
<path d="M24.8931 26.0002C24.6999 26.0002 24.5053 25.9467 24.3269 25.8349L18.5382 22.1463C18.2049 21.9321 18 21.5462 18 21.1304V13.1815C18 12.5294 18.4954 12.0002 19.1058 12.0002C19.7163 12.0002 20.2117 12.5294 20.2117 13.1815V20.4595L25.4608 23.8031C25.9842 24.1386 26.1567 24.8631 25.8441 25.4238C25.6362 25.7939 25.2691 26.0002 24.8931 26.0002Z" fill="white"/>
</svg>
