<svg viewBox="0 0 40 40" fill="none" xmlns="http://www.w3.org/2000/svg">
<rect width="100%" height="100%" rx="20" fill="#F46A3F"/>
<path fill-rule="evenodd" clip-rule="evenodd" d="M9.61656 25C10.0207 25 10.4248 24.8634 10.74 24.5888L15.5444 20.3738L20.0416 23.972C20.6785 24.4816 21.6403 24.4566 22.2449 23.9176L27.7669 18.9771V19.7423C27.7669 20.5545 28.4895 21.211 29.3835 21.211C30.2758 21.211 31 20.5545 31 19.7423V15.4686C31 15.4363 30.9806 15.4084 30.979 15.3761C30.9677 15.2175 30.9434 15.0603 30.8755 14.9105C30.8157 14.7798 30.7203 14.6712 30.6233 14.5625C30.5894 14.5228 30.5749 14.4744 30.5344 14.4391L30.5296 14.4362C30.3809 14.2996 30.2047 14.1895 30.0075 14.1146C29.8102 14.0382 29.6001 14.0015 29.3883 14H29.3835H24.6761C23.7838 14 23.0596 14.6565 23.0596 15.4686C23.0596 16.2808 23.7838 16.9372 24.6761 16.9372H25.4375L21.0487 20.8644L16.5612 17.2735C15.9307 16.7683 14.977 16.7874 14.3692 17.3191L8.49308 22.474C7.85131 23.0379 7.83353 23.969 8.45428 24.5506C8.77112 24.8487 9.19303 25 9.61656 25Z" fill="white"/>
</svg>
