<svg viewBox="0 0 40 40" fill="none" xmlns="http://www.w3.org/2000/svg">
<rect width="100%" height="100%" rx="20" fill="#9DA7E4"/>
<path opacity="0.4" fill-rule="evenodd" clip-rule="evenodd" d="M34.9385 18.6537C34.4737 13.1635 30.9727 8.3868 25.9689 6.21556C22.5299 4.72671 18.7499 4.5251 14.6293 6.06047C12.9252 6.69634 11.3296 7.62687 9.98185 8.83656C6.86807 11.6126 5.17951 15.2572 5.00911 19.6307C4.91616 22.2517 5.53581 24.8882 6.8216 27.168C9.08334 31.1383 12.3985 33.6197 16.6277 34.6123C17.4022 34.7984 18.2077 34.8604 18.9978 34.969C19.0598 34.9845 19.1062 34.9845 19.1527 35H20.8568C21.0427 34.9845 21.2286 34.9535 21.4145 34.938C23.6917 34.6743 25.938 34.0229 27.8589 32.7822C31.3909 30.5334 33.6527 27.4007 34.6131 23.3839C34.9849 21.833 35.0779 20.2511 34.9385 18.6537Z" fill="white"/>
<path fill-rule="evenodd" clip-rule="evenodd" d="M31.7908 21.9209C27.6579 20.8707 25.9023 15.7296 30.7964 14.4443C31.915 16.8268 32.2724 19.3033 31.7908 21.9209ZM25.2186 25.2595C24.2864 26.7799 22.9503 28.0338 22.7793 29.946C22.5308 30.9022 22.2822 32.0307 21.0392 31.9994C18.9883 31.7016 20.2002 28.8802 18.9883 27.6419C18.0406 26.6075 17.7454 25.3692 17.9008 23.9742C17.8542 22.109 16.1141 21.6387 14.7468 20.855C12.1522 19.6011 10.5519 17.2657 9.06033 14.8988C8.53207 12.7985 11.6084 10.7765 13.0067 9.55394C15.8655 6.73259 15.9587 10.8706 17.7143 9.2091C18.0717 6.29371 22.2356 9.35017 20.946 11.0587C18.9883 12.0618 21.2101 12.8455 20.0138 13.8643C17.8231 14.0681 17.7143 15.3064 18.8796 16.9678C19.2835 18.5196 17.6366 17.5948 17.0773 17.0932C16.2694 16.9365 13.3485 17.6105 14.405 18.8017C15.2596 19.7892 16.6579 19.3973 17.5745 20.1654C17.9474 20.5572 18.196 21.1372 18.631 21.4507C21.1169 22.1403 26.1509 20.6669 25.2186 25.2595Z" fill="white"/>
</svg>
