<svg viewBox="0 0 40 40" fill="none" xmlns="http://www.w3.org/2000/svg">
<rect width="100%" height="100%" rx="20" fill="#231B69"/>
<path fill-rule="evenodd" clip-rule="evenodd" d="M24.2704 8.85952C24.0017 8.79827 23.7167 8.90827 23.5542 9.13702C23.4154 9.32827 23.3967 9.65327 23.5079 9.86327C25.3829 13.3995 24.7117 17.852 21.8742 20.6908C19.0329 23.532 14.5855 24.1983 11.058 22.307C11.048 22.3008 11.0367 22.2958 11.0255 22.2908C10.7792 22.1733 10.4855 22.217 10.2755 22.3958C10.0905 22.5545 9.99299 22.882 10.0605 23.1158C11.4655 28.0345 16.0192 31.4695 21.1342 31.4695C27.4879 31.4695 32.6567 26.2995 32.6567 19.9445C32.6567 14.8358 29.2242 10.282 24.2704 8.85952Z" fill="white"/>
<path fill-rule="evenodd" clip-rule="evenodd" d="M14.9613 12.718H16.8688L14.2113 16.2555C13.9975 16.5393 13.9638 16.9193 14.1225 17.2368C14.2813 17.5555 14.6063 17.7555 14.9613 17.7555H18.745C19.2625 17.7555 19.6825 17.3355 19.6825 16.818C19.6825 16.3005 19.2625 15.8805 18.745 15.8805H16.8375L19.495 12.343C19.7087 12.0593 19.7425 11.6793 19.5837 11.3618C19.425 11.0443 19.1012 10.843 18.745 10.843H14.9613C14.4438 10.843 14.0238 11.263 14.0238 11.7805C14.0238 12.298 14.4438 12.718 14.9613 12.718Z" fill="white"/>
<path fill-rule="evenodd" clip-rule="evenodd" d="M13.0691 12.9303C13.0691 12.4128 12.6491 11.9928 12.1316 11.9928H11.4078L12.8816 10.0315C13.0953 9.74777 13.1291 9.36652 12.9703 9.05027C12.8116 8.73152 12.4866 8.53027 12.1316 8.53027H9.53158C9.01408 8.53027 8.59408 8.95027 8.59408 9.46777C8.59408 9.98652 9.01408 10.4053 9.53158 10.4053H10.2553L8.78158 12.3678C8.56783 12.6515 8.53408 13.0315 8.69283 13.349C8.85158 13.6665 9.17658 13.8678 9.53158 13.8678H12.1316C12.6491 13.8678 13.0691 13.4478 13.0691 12.9303Z" fill="white"/>
</svg>
