<svg width="24" height="25" viewBox="0 0 22 25" fill="none" xmlns="http://www.w3.org/2000/svg">
<path fill-rule="evenodd" clip-rule="evenodd" d="M2.32185 0.191544C1.69738 0.394352 0.955334 0.958233 0.605673 1.49594C-0.036504 2.48325 0.000391928 1.71161 0.000391928 14.1684C0.000391927 22.1502 0.00039196 21.4686 0.262903 22.0185C0.597933 22.7203 1.23958 23.386 1.91155 23.729C2.4389 23.9982 2.4389 23.9982 11.957 24.028C21.4751 24.0578 21.4751 24.0578 21.7376 23.7855C22 23.5133 22 24.028 22 14.1134C22 0.575493 22 0.575493 21.7397 0.305596C21.4795 0.0355881 21.4795 0.0355882 12.1182 0.042957C4.80818 0.0486761 2.66166 0.0812309 2.32185 0.191544ZM11.3777 2.91028C11.5093 3.00586 11.9467 3.76694 12.3498 4.60159C12.9174 5.77709 13.1376 6.13233 13.327 6.17798C13.4613 6.21031 14.1915 6.32436 14.9495 6.43149C16.1977 6.60779 16.3563 6.65563 16.6302 6.93873C17.0918 7.41594 16.9677 7.67308 15.5869 9.10011C14.3781 10.3494 14.3781 10.3494 14.6369 11.8497C14.9726 13.7966 14.9703 13.9885 14.6066 14.2853C14.2165 14.6036 14.043 14.5534 12.3785 13.6395C10.9737 12.8683 10.9737 12.8683 9.5689 13.6395C7.90435 14.5534 7.7309 14.6036 7.34073 14.2853C6.97708 13.9885 6.97474 13.7966 7.31052 11.8497C7.56932 10.3494 7.56932 10.3494 6.36045 9.10011C4.97972 7.67308 4.85557 7.41594 5.31719 6.93873C5.59105 6.65563 5.74966 6.60779 6.99786 6.43149C7.75592 6.32436 8.48609 6.21031 8.62042 6.17798C8.80978 6.13233 9.02998 5.77709 9.59763 4.60159C10.4788 2.77687 10.7888 2.48234 11.3777 2.91028ZM20.4097 20.5888C20.4097 22.4035 20.4097 22.4035 11.6795 22.4035C2.9494 22.4035 2.9494 22.4035 2.48767 22.1502C1.96615 21.8641 1.53771 21.1627 1.53771 20.5948C1.53771 20.0373 1.95958 19.302 2.4389 19.0238C2.86299 18.7777 2.86299 18.7777 11.6363 18.7758C20.4097 18.7741 20.4097 18.7741 20.4097 20.5888Z" fill="#58A4FF"/>
</svg>
