<svg width="22" height="27" viewBox="0 0 22 27" fill="none" xmlns="http://www.w3.org/2000/svg">
<path fill-rule="evenodd" clip-rule="evenodd" d="M11.1468 0.0998546C12.6221 0.297385 14.2975 0.932088 15.5417 1.76503C17.3886 3.00158 18.9314 5.16517 19.4991 7.31512C19.7327 8.20004 19.8912 9.66627 19.8219 10.3012C19.7613 10.8558 19.7707 10.8799 20.9083 13.1055C21.941 15.1253 22.0489 15.3874 21.9855 15.7207C21.899 16.1755 21.4284 16.6593 20.9881 16.7462C20.8075 16.7818 20.387 16.8109 20.0538 16.8109H19.448V18.8302C19.448 20.7621 19.4379 20.8643 19.2135 21.1926C19.0846 21.3814 18.8225 21.64 18.6311 21.7671C18.2983 21.9883 18.1945 21.9984 16.2396 21.9984C14.3974 21.9984 14.187 22.0159 14.1033 22.1764C14.0524 22.2744 13.7642 23.1783 13.463 24.1853C13.1619 25.1923 12.9084 26.0273 12.8999 26.0407C12.8749 26.0805 1.25406 22.592 1.17496 22.5209C1.13526 22.4852 1.4999 21.1621 1.98539 19.5806L2.86811 16.7053L2.46655 16.2749C0.730716 14.4147 -0.240684 11.438 0.0514581 8.87431C0.269559 6.96136 0.90097 5.37501 2.0353 3.89017C3.46683 2.01627 5.58318 0.712689 7.9662 0.237068C8.93936 0.0427925 10.2864 -0.0152869 11.1468 0.0998546ZM8.80076 4.16185L8.41406 4.22491V4.87121V5.51761L7.82111 5.82499C7.49504 5.99415 7.14639 6.18934 7.04636 6.25881C6.89426 6.36449 6.77072 6.3354 6.28935 6.07999L5.71404 5.77485L5.36023 6.18171C5.02509 6.56711 4.3746 7.75768 4.24075 8.23096C4.18929 8.41273 4.26901 8.50071 4.71552 8.755L5.25206 9.06055L5.26041 9.94222L5.26887 10.824L4.72367 11.1317C4.26797 11.3887 4.18857 11.4754 4.24044 11.6586C4.3747 12.1327 5.02488 13.323 5.36023 13.7086L5.71404 14.1155L6.28935 13.8103C6.77072 13.5549 6.89426 13.5259 7.04636 13.6315C7.14639 13.701 7.49504 13.8962 7.82111 14.0653L8.41406 14.3727V15.025V15.6774L8.9871 15.748C9.64295 15.8289 11.1962 15.7683 11.3826 15.6545C11.4588 15.6082 11.5078 15.332 11.5081 14.9486L11.5084 14.3189L11.9464 14.1406C12.1872 14.0426 12.5211 13.8542 12.6883 13.7221L12.9924 13.4819L13.5731 13.7942L14.1538 14.1065L14.4767 13.755C14.8343 13.366 15.3526 12.4655 15.5719 11.8523L15.7141 11.4548L15.1577 11.1266L14.6013 10.7984V9.94517V9.09198L15.1577 8.76375L15.7141 8.43551L15.5719 8.03801C15.3526 7.42487 14.8343 6.52439 14.4767 6.13533L14.1538 5.7838L13.5784 6.08976L13.0029 6.39582L12.4873 6.05701C12.2038 5.87066 11.8693 5.69215 11.7441 5.66032C11.5424 5.60905 11.5133 5.52575 11.4863 4.92644C11.4569 4.26651 11.4488 4.24892 11.1468 4.18555C10.7308 4.09828 9.28069 4.08363 8.80076 4.16185ZM10.6045 7.90303C11.183 8.10667 11.4779 8.32861 11.7915 8.79589C12.035 9.15891 12.0749 9.32176 12.0749 9.95443C12.0749 10.607 12.0397 10.7406 11.7649 11.1316C11.4156 11.6285 10.536 12.1325 10.0198 12.1314C9.01164 12.1297 8.01395 11.3648 7.81327 10.44C7.64282 9.65498 7.82049 9.0573 8.3991 8.46908C9.06331 7.79379 9.77505 7.61111 10.6045 7.90303Z" fill="#58A4FF"/>
</svg>
