<svg width="38" height="38" viewBox="0 0 38 38" fill="none" xmlns="http://www.w3.org/2000/svg">
<circle cx="19" cy="19" r="19" fill="#58A4FF"/>
<path d="M18.9563 28.2386C17.6836 28.2386 16.5501 28.0199 15.5558 27.5824C14.5671 27.1392 13.7859 26.5312 13.212 25.7585C12.6438 24.9801 12.3512 24.0824 12.3342 23.0653H16.0501C16.0728 23.4915 16.212 23.8665 16.4677 24.1903C16.729 24.5085 17.0756 24.7557 17.5075 24.9318C17.9393 25.108 18.4251 25.196 18.9648 25.196C19.5273 25.196 20.0245 25.0966 20.4563 24.8977C20.8881 24.6989 21.2262 24.4233 21.4705 24.071C21.7148 23.7187 21.837 23.3125 21.837 22.8523C21.837 22.3864 21.7063 21.9744 21.445 21.6165C21.1893 21.2528 20.82 20.9687 20.337 20.7642C19.8597 20.5597 19.2915 20.4574 18.6325 20.4574H17.0046V17.7472H18.6325C19.1893 17.7472 19.6808 17.6506 20.1069 17.4574C20.5387 17.2642 20.8739 16.9972 21.1126 16.6562C21.3512 16.3097 21.4705 15.9062 21.4705 15.446C21.4705 15.0085 21.3654 14.625 21.1552 14.2955C20.9506 13.9602 20.6609 13.6989 20.2859 13.5114C19.9165 13.3239 19.4847 13.2301 18.9904 13.2301C18.4904 13.2301 18.033 13.321 17.6183 13.5028C17.2035 13.679 16.8711 13.9318 16.6211 14.2614C16.3711 14.5909 16.2376 14.9773 16.2205 15.4205H12.6836C12.7006 14.4148 12.9876 13.5284 13.5444 12.7614C14.1012 11.9943 14.8512 11.3949 15.7944 10.9631C16.7433 10.5256 17.8143 10.3068 19.0075 10.3068C20.212 10.3068 21.266 10.5256 22.1694 10.9631C23.0728 11.4006 23.7745 11.9915 24.2745 12.7358C24.7802 13.4744 25.0302 14.304 25.0245 15.2244C25.0302 16.2017 24.7262 17.017 24.1126 17.6705C23.5046 18.3239 22.712 18.7386 21.7347 18.9148V19.0511C23.0188 19.2159 23.9961 19.6619 24.6665 20.3892C25.3427 21.1108 25.6779 22.0142 25.6722 23.0994C25.6779 24.0938 25.391 24.9773 24.8114 25.75C24.2376 26.5227 23.445 27.1307 22.4336 27.5739C21.4222 28.017 20.2631 28.2386 18.9563 28.2386Z" fill="white"/>
</svg>
