<svg width="38" height="39" viewBox="0 0 38 39" fill="none" xmlns="http://www.w3.org/2000/svg">
<circle cx="19" cy="19.041" r="19" fill="#58A4FF"/>
<path d="M12.8562 28.041V25.3819L19.0692 19.6291C19.5977 19.1177 20.0408 18.6575 20.3988 18.2484C20.7624 17.8393 21.038 17.4387 21.2255 17.0467C21.413 16.649 21.5067 16.22 21.5067 15.7598C21.5067 15.2484 21.3903 14.8081 21.1573 14.4387C20.9244 14.0637 20.6062 13.7768 20.2028 13.5779C19.7994 13.3734 19.342 13.2711 18.8306 13.2711C18.2965 13.2711 17.8306 13.3791 17.4329 13.595C17.0352 13.8109 16.7283 14.1206 16.5124 14.524C16.2965 14.9274 16.1886 15.4075 16.1886 15.9643H12.6857C12.6857 14.8223 12.9442 13.8308 13.4613 12.9899C13.9783 12.149 14.7028 11.4984 15.6346 11.0382C16.5664 10.5779 17.6403 10.3478 18.8562 10.3478C20.1062 10.3478 21.1942 10.5694 22.1204 11.0126C23.0522 11.4501 23.7766 12.0581 24.2937 12.8365C24.8107 13.6149 25.0692 14.5069 25.0692 15.5126C25.0692 16.1717 24.9386 16.8223 24.6772 17.4643C24.4215 18.1064 23.9641 18.8194 23.305 19.6035C22.646 20.3819 21.717 21.3166 20.5181 22.4075L17.9698 24.9047V25.024H25.2994V28.041H12.8562Z" fill="white"/>
</svg>
