<svg width="78" height="81" viewBox="0 0 78 81" fill="none" xmlns="http://www.w3.org/2000/svg">
<path fill-rule="evenodd" clip-rule="evenodd" d="M52.2963 0.670899C50.9556 1.48195 50.5434 2.89727 50.5411 6.6988C50.5394 9.30493 50.4815 9.57506 49.9601 9.41226C47.1521 8.53622 40.9767 8.28808 37.4485 8.91007C32.8605 9.71882 27.28 12.0748 22.7927 15.0981C9.80463 23.848 5.29806 40.8519 12.2586 54.8442C13.0219 56.3787 13.6965 57.7451 13.758 57.8803C13.8192 58.0155 11.8099 58.1301 9.29247 58.1344C1.85619 58.1472 0.947991 58.6119 0.240956 62.7699C-0.0723634 64.6123 -0.0786497 65.9984 0.213495 68.8559C0.64923 73.1189 0.831862 73.7163 2.07521 74.9482C2.71806 75.5849 3.32353 75.8508 4.1318 75.8508C5.27689 75.8508 5.27689 75.8508 5.04695 77.8182C4.8524 79.4797 4.9017 79.8181 5.36324 79.9937C6.10039 80.2743 7.86715 79.2929 9.98031 77.4292C11.7262 75.8892 11.7262 75.8892 18.5882 75.7881C25.4497 75.6867 25.4497 75.6867 26.4145 74.6147C27.288 73.6441 27.3793 73.3228 27.3793 71.2152C27.3793 69.1329 27.4402 68.9111 27.9583 69.1096C32.8096 70.9691 37.3122 71.7148 42.2677 71.4794C51.0804 71.061 58.1276 67.777 64.4803 61.1288C68.9548 56.4466 71.5632 51.7073 72.9085 45.818C73.773 42.0328 73.7029 35.9239 72.75 32.0324C71.778 28.0622 69.229 22.9723 66.5878 19.7268C64.4485 17.098 64.4485 17.098 70.2047 17.098C73.3707 17.098 76.2018 17.0061 76.4963 16.8942C77.7605 16.413 78 15.085 78 8.55887C78 2.22309 77.8571 1.32834 76.7054 0.450987C76.3166 0.154925 73.2185 0.0485795 64.7658 0.042015C54.0336 0.0331528 53.2882 0.0708992 52.2963 0.670899ZM75.4915 1.87057C75.9444 2.04289 76.0149 2.94617 76.0149 8.57725C76.0149 14.9091 75.996 15.0903 75.3168 15.3043C74.933 15.4251 71.5166 15.472 67.7247 15.4083C60.8306 15.2928 60.8306 15.2928 59.4897 16.5903C58.1487 17.8878 58.1487 17.8878 58.1487 16.6786C58.1487 15.3371 57.9178 15.2107 55.1711 15.0512C53.6822 14.9646 53.6822 14.9646 53.5922 8.58808C53.5231 3.70602 53.6008 2.14924 53.9231 1.94639C54.4074 1.64147 74.702 1.56991 75.4915 1.87057ZM63.8037 3.043C63.6346 3.46182 63.4143 4.06346 63.3144 4.37922C63.1701 4.83414 62.7565 4.95361 61.3259 4.95361C59.4126 4.95361 58.3516 5.55329 58.6943 6.44016C58.8243 6.77626 59.3851 6.92298 60.5388 6.92298C62.3685 6.92298 62.2616 6.67484 61.5896 9.35679C61.4295 9.99486 61.5751 10.2469 62.334 10.647C63.277 11.1443 63.277 11.1443 61.8771 11.3721C60.3181 11.6258 59.6234 12.2212 59.9373 13.0333C60.2116 13.7422 62.1977 13.498 64.2765 12.4996C65.7835 11.7758 65.7835 11.7758 67.1238 12.6555C67.861 13.1396 68.6742 13.4554 68.931 13.3576C69.4077 13.176 69.5999 11.8477 69.1496 11.8448C69.0133 11.8438 68.4876 11.5116 67.9814 11.1062C67.0613 10.3694 67.0613 10.3694 67.7991 8.64617C68.3884 7.26893 68.6914 6.92298 69.3085 6.92298C69.7329 6.92298 70.1743 6.68009 70.2891 6.38304C70.6315 5.49781 69.4663 4.95361 67.229 4.95361C65.1867 4.95361 65.1867 4.95361 65.2244 3.73359C65.2701 2.26051 64.3086 1.79278 63.8037 3.043ZM66.4201 7.34213C66.4201 7.68578 66.1164 8.24081 65.2522 9.47593C65.2171 9.52615 64.8055 9.42276 64.3377 9.2465C63.5483 8.94847 63.5145 8.85394 63.8682 7.9244C64.1862 7.08841 64.4284 6.92298 65.3346 6.92298C65.9949 6.92298 66.4201 7.08709 66.4201 7.34213ZM21.808 7.86828C21.2601 8.21259 21.5936 11.507 22.2673 12.4077C22.6656 12.94 22.7559 12.9473 23.2314 12.4832C23.6922 12.0335 23.7045 11.7181 23.3343 9.88294C22.9068 7.76488 22.6057 7.3674 21.808 7.86828ZM16.2341 8.76926C16.0876 9.14803 16.5104 10.2739 17.4451 11.9938C18.9746 14.808 19.2876 15.1654 19.9877 14.8989C20.7007 14.6278 20.4969 13.8177 19.014 11.0258C17.6171 8.39639 16.6742 7.63097 16.2341 8.76926ZM45.6937 12.4208C47.0979 15.2025 49.0916 20.1492 50.0514 23.2333C50.7144 25.3631 50.734 25.6136 50.2509 25.7974C49.0777 26.2441 38.3421 26.3655 34.3276 25.9776C32.0529 25.7577 30.1336 25.5197 30.0619 25.4488C29.4991 24.8905 33.8032 16.1504 36.3034 12.7746C38.0927 10.3589 38.1876 10.3169 42.0153 10.2499C44.5754 10.2053 44.5754 10.2053 45.6937 12.4208ZM49.5852 11.0826C50.4961 11.2635 50.5391 11.3521 50.5391 13.0579C50.5391 14.0399 50.6999 15.1418 50.8967 15.5065C51.355 16.3562 53.6875 17.4099 55.131 17.419C56.249 17.4263 56.249 17.4263 56.0352 19.0228C55.8725 20.2405 55.9406 20.7167 56.3221 21.0309C56.9282 21.5301 57.4778 21.2163 60.1018 18.8721C61.8894 17.275 61.8894 17.275 63.9893 19.5509C65.1443 20.8027 66.0892 21.9975 66.0892 22.2056C66.0892 22.7774 53.3788 25.9326 52.9179 25.4754C52.8531 25.4114 52.1589 23.4588 51.3752 21.1362C50.5917 18.814 49.267 15.4631 48.4315 13.6897C46.9129 10.4655 46.9129 10.4655 47.7722 10.6795C48.2446 10.797 49.0605 10.9786 49.5852 11.0826ZM33.56 13.6966C31.7581 16.4688 30.4155 19.1271 29.1891 22.3497C28.6739 23.7036 28.1674 24.9144 28.0638 25.0402C27.9603 25.1662 26.1634 24.8948 24.0707 24.4369C18.7073 23.2638 18.785 23.2841 18.6017 22.9901C18.3255 22.5469 21.6128 18.881 23.9887 16.9822C25.2165 16.0011 27.2532 14.637 28.5148 13.9516C30.6703 12.7802 34.7027 11.1433 34.9238 11.3501C34.979 11.4016 34.3653 12.4576 33.56 13.6966ZM12.687 14.6751C12.4032 15.4093 15.1856 18.1697 15.9258 17.8881C16.7989 17.5556 16.5425 16.6536 15.2065 15.3594C13.8589 14.0541 13.0159 13.8249 12.687 14.6751ZM68.748 26.6987C70.8711 31.1048 71.4845 33.9056 71.4974 39.2534C71.5053 42.599 71.3528 44.4286 70.9359 45.9821C70.3119 48.3062 69.1126 51.5577 68.7123 52.0103C68.574 52.1665 66.6246 51.8465 64.3801 51.2994C62.1355 50.7522 59.406 50.1384 58.3142 49.9356C54.4495 49.2174 54.823 49.5673 55.0519 46.8794C55.3732 43.1091 54.3734 32.2743 53.3169 28.0782C53.1604 27.4566 53.4787 27.3397 57.5506 26.5211C59.9724 26.0344 63.0702 25.2804 64.435 24.8459C65.7997 24.4113 67.0348 24.0414 67.1797 24.0233C67.3247 24.0056 68.0304 25.2095 68.748 26.6987ZM22.384 25.9956C24.4946 26.5149 26.4817 26.9409 26.8003 26.9422C27.5083 26.9455 27.5126 26.7647 26.712 30.5554C25.8018 34.865 25.5348 40.7475 26.0572 44.9974C26.2901 46.8929 26.4966 48.7218 26.5164 49.0615C26.5469 49.588 25.9672 49.8105 22.5819 50.5717C20.3983 51.0627 18.0413 51.6253 17.3441 51.8222C16.0766 52.18 16.0766 52.18 15.3269 50.4762C13.7454 46.8831 13.3176 44.488 13.3219 39.2534C13.3269 33.6552 13.8933 31.0257 15.9807 26.9134C16.9951 24.9151 17.2416 24.6404 17.848 24.8314C18.2322 24.9522 20.2735 25.4764 22.384 25.9956ZM41.4406 28.0937C45.08 28.0937 48.8014 28.0247 49.7103 27.9407C51.3626 27.7878 51.3626 27.7878 51.9161 30.7205C52.7059 34.9034 53.1859 40.2919 53.1859 44.9682C53.1859 49.007 53.1859 49.007 49.7947 48.7543C44.949 48.3932 37.1071 48.4795 32.5687 48.9437C30.4251 49.1629 28.6101 49.2817 28.5353 49.2076C28.4605 49.1334 28.2266 47.9711 28.0158 46.6247C27.3078 42.1057 27.998 31.265 29.202 27.989C29.3274 27.6479 29.9411 27.6131 32.0923 27.8248C33.5944 27.9725 37.8012 28.0937 41.4406 28.0937ZM51.6144 50.7758C52.6873 50.9623 52.8551 51.111 52.8551 51.8757C52.8551 53.5093 51.5598 59.9163 50.4656 63.6945C49.4512 67.1974 49.3169 67.4593 48.3885 67.7445C47.1945 68.1115 38.4801 68.2349 37.2894 67.9018C36.3325 67.6339 33.4667 63.1622 31.7614 59.2753C30.936 57.3939 29.0336 51.8987 29.0336 51.3959C29.0336 50.5139 47.2319 50.0143 51.6144 50.7758ZM58.9239 51.9049C63.804 52.8794 67.4127 53.8822 67.4127 54.2642C67.4127 54.9322 64.435 58.7124 62.5316 60.4605C61.4566 61.4478 59.6998 62.8333 58.6278 63.5393C56.7525 64.7741 51.8473 67.0828 51.6064 66.8439C51.5422 66.7802 51.8632 65.4942 52.3197 63.9863C53.1915 61.1065 53.9879 57.4405 54.3416 54.6801C54.6903 51.9578 54.8766 51.2337 55.228 51.2337C55.4126 51.2337 57.0758 51.5357 58.9239 51.9049ZM27.723 53.7299C28.5919 56.786 30.8652 62.188 32.3054 64.6195C33.9183 67.3421 33.6218 67.499 30.1102 65.7817C27.5447 64.5269 27.5447 64.5269 27.3793 62.3606C27.1282 59.0721 25.9536 58.1265 22.1204 58.1265C19.806 58.1265 19.806 58.1265 18.4644 56.2677C17.7266 55.2456 17.1228 54.2895 17.1228 54.1434C17.1228 53.7062 25.9818 51.4727 26.8582 51.689C27.0266 51.7303 27.416 52.6487 27.723 53.7299ZM24.7324 60.4241C25.3386 61.0254 25.3942 61.5181 25.3942 66.3053C25.3942 69.1789 25.4752 71.7394 25.5741 71.9951C25.6731 72.2511 25.4742 72.8032 25.1321 73.222C24.52 73.972 24.4056 73.9845 17.7408 74.0147C10.9712 74.0455 10.9712 74.0455 9.13134 75.6046C8.11926 76.4623 7.2329 77.164 7.16144 77.164C7.08997 77.1644 7.03174 76.5424 7.03174 75.7822C7.03174 74.4043 7.02711 74.399 5.5429 74.1204C3.01616 73.6457 2.89606 73.3195 2.89606 66.9374C2.89606 59.1135 1.85586 59.7676 14.2956 59.7676C23.6297 59.7676 24.1005 59.7972 24.7324 60.4241ZM12.2483 64.0973C8.75185 68.8389 7.80594 70.3175 7.98063 70.7692C8.29296 71.5763 9.10124 71.3212 10.0779 70.1068C10.9669 69.0017 11.0854 68.958 13.1952 68.958C15.3147 68.958 15.402 68.9908 15.7948 69.9319C16.4068 71.3977 17.0374 71.809 17.6859 71.1657C18.1719 70.6835 18.0667 70.3054 16.4148 66.6007C15.2998 64.0999 14.4078 62.5218 14.0733 62.4581C13.7358 62.3935 13.051 63.0085 12.2483 64.0973ZM14.476 66.8872C14.476 67.1459 14.0806 67.3169 13.4834 67.3169C12.3287 67.3169 12.2927 67.2164 13.0698 66.1645C13.5949 65.4542 13.6875 65.4315 14.0624 65.9193C14.29 66.2153 14.476 66.6509 14.476 66.8872Z" fill="white"/>
</svg>
