<svg width="28" height="24" viewBox="0 0 28 24" fill="none" xmlns="http://www.w3.org/2000/svg">
<path fill-rule="evenodd" clip-rule="evenodd" d="M7.10575 3.40665C3.46507 5.25198 0.375498 6.88572 0.240156 7.03732C-0.0571165 7.37005 -0.081953 7.95672 0.18545 8.32463C0.382282 8.59532 13.666 15.3814 13.999 15.3814C14.0993 15.3814 16.2841 14.3164 18.8543 13.0148C21.4245 11.7131 23.5498 10.6482 23.5772 10.6482C23.6045 10.6482 23.627 13.1836 23.627 16.2827C23.627 21.9173 23.627 21.9173 23.8956 22.2312C24.2508 22.6467 24.7537 22.6467 25.1089 22.2312C25.3775 21.9173 25.3775 21.9173 25.3775 15.9704C25.3775 12.6997 25.3406 9.99765 25.2955 9.96592C25.2504 9.9342 22.6286 9.5224 19.4693 9.05087C15.8561 8.51153 13.6345 8.12609 13.4807 8.01198C12.9896 7.64739 13.0373 6.66454 13.5628 6.31978C13.8047 6.16089 14.5564 6.24955 20.2814 7.11202C26.5604 8.05804 26.7352 8.09181 27.026 8.41764C27.2759 8.69754 27.3618 8.72901 27.5521 8.60991C28.0168 8.31913 28.1481 7.5494 27.812 7.08708C27.5904 6.78223 14.2987 0.0246708 13.9529 0.0410453C13.8276 0.0469299 10.7464 1.56145 7.10575 3.40665ZM5.2882 13.6456C5.25516 13.7463 5.24466 14.8831 5.26479 16.1721C5.30046 18.4536 5.30954 18.5336 5.60867 19.1987C6.57051 21.3374 8.82888 22.8467 11.8523 23.3715C16.5164 24.1813 21.1178 22.3269 22.4037 19.1192C22.6837 18.4208 22.6986 18.2791 22.7328 15.9889C22.7641 13.8984 22.7465 13.5801 22.5963 13.5128C22.4968 13.468 20.7949 14.2651 18.567 15.3998C14.8952 17.2699 14.6757 17.3643 13.9987 17.3643C13.3219 17.3641 13.1027 17.27 9.45811 15.4124C7.35193 14.3389 5.56556 13.4611 5.48854 13.4616C5.4114 13.4621 5.32124 13.5449 5.2882 13.6456Z" fill="#58A4FF"/>
</svg>
