<svg width="78" height="76" viewBox="0 0 78 76" fill="none" xmlns="http://www.w3.org/2000/svg">
<path fill-rule="evenodd" clip-rule="evenodd" d="M67.4792 0.516694C65.5154 1.11296 63.5298 3.02068 59.9971 7.70432C56.7645 11.991 52.4506 18.4557 50.8818 21.3653C49.4901 23.9465 48.9215 24.5151 55.2512 16.999C61.6973 9.34428 66.1431 4.44271 67.2562 3.76223C69.6413 2.30388 72.9354 3.17336 74.3443 5.63299C75.735 8.06047 75.1762 10.1363 72.4354 12.7258C70.3971 14.6518 63.5938 20.3429 57.9224 24.8667C55.7297 26.6157 54.0045 28.1152 54.0891 28.1984C54.5832 28.6873 66.7406 20.8993 72.1939 16.6007C77.0831 12.7467 78.0141 11.3253 77.9998 7.73678C77.9865 4.35078 75.7763 1.46943 72.4409 0.490015C70.3789 -0.115249 69.5464 -0.110749 67.4792 0.516694ZM32.8205 2.10298C32.3735 2.17627 30.9838 2.39838 29.7322 2.5967C22.8151 3.6928 16.6561 6.75512 11.4379 11.692C5.63811 17.1796 1.96371 23.8301 0.491408 31.5057C-0.166234 34.9335 -0.163308 41.5634 0.49726 45.0066C3.31052 59.6708 15.3958 70.7896 32.4954 74.446C34.4794 74.8702 36.6341 75.038 40.1349 75.0409C44.346 75.0445 45.3437 74.9422 47.4492 74.292C54.6729 72.0606 60.1275 67.5737 63.5096 61.0813C65.7111 56.8547 66.4402 54.1425 66.4529 50.1338C66.476 42.6736 63.6286 38.342 56.8766 35.5667C54.7636 34.6982 54.7636 34.6982 54.7181 32.4456C54.6228 27.7314 51.227 23.6832 46.5078 22.6585C45.2848 22.393 45.2878 22.438 46.0169 15.2346C46.6031 9.442 46.4929 7.93254 45.3086 5.53431C44.6831 4.26688 44.1006 3.62916 42.9722 2.97503C41.5874 2.17273 41.1599 2.0988 37.5511 2.03676C35.3962 1.9998 33.2675 2.02969 32.8205 2.10298ZM42.1709 3.99752C45.08 5.18491 45.5631 7.03637 45.2751 15.8939C45.0709 22.1689 45.0709 22.1689 44.2059 22.1689C42.7261 22.1689 40.1401 23.0831 38.698 24.1159C37.7127 24.8217 37.0378 25.6954 36.3415 27.1663C35.4856 28.9747 35.3298 29.7625 35.0727 33.5847C34.8536 36.8377 34.6033 38.3465 34.0841 39.54C33.2548 41.4458 31.5212 43.0622 30.306 43.0622C29.7401 43.0622 29.5502 43.1715 29.7583 43.3773C30.333 43.9456 32.4795 43.078 33.8497 41.7231C35.6289 39.9639 36.2358 38.4503 37.0225 33.8094C37.976 28.1862 39.0553 26.4164 42.0724 25.5292C45.3967 24.5521 48.6686 25.9873 50.4975 29.2254C51.3369 30.7114 51.4884 31.3231 51.4933 33.2434C51.4998 35.9813 50.7407 37.8354 48.7294 39.9929C46.7159 42.1529 44.635 43.5524 42.245 44.3535C40.4661 44.95 39.6502 45.0362 37.0466 44.9041C35.348 44.8179 33.2496 44.5023 32.3833 44.203C30.2738 43.4743 30.1009 43.7932 32.0706 44.7803C34.9154 46.2056 37.1796 46.6832 40.4255 46.5421C42.8841 46.4354 43.7436 46.2467 45.4987 45.4293C50.1907 43.2439 53.1746 39.9176 54.4596 35.44C54.655 34.7592 59.0953 36.9511 60.9902 38.6631C69.7668 46.5945 63.8828 64.4245 50.5105 70.4196C44.4578 73.1335 36.6178 73.0162 27.8344 70.0805C22.0619 68.1509 17.4932 65.4522 13.3088 61.4992C9.89507 58.2742 8.1406 55.9309 6.15012 51.9381C4.02213 47.6691 3.23348 44.5482 3.00592 39.4953C2.53195 28.974 6.04122 20.2969 13.7447 12.9418C19.329 7.61014 25.5975 4.64104 33.6332 3.52148C36.5297 3.11775 40.5672 3.34308 42.1709 3.99752ZM23.5557 12.4172C21.1562 13.6679 19.8172 15.7669 19.8172 18.2779C19.8172 20.3345 20.1625 21.1905 21.6474 22.8157C23.2423 24.5611 24.303 25.0628 26.3839 25.0567C29.3649 25.0474 31.504 23.3229 32.173 20.3891C32.3163 19.7617 32.3001 19.276 32.1362 19.276C31.9763 19.276 31.8453 19.4155 31.8453 19.5862C31.8453 20.3525 29.755 22.1815 28.4963 22.5164C24.9038 23.473 21.718 20.0626 23.2404 16.8903C24.843 13.5509 29.3178 13.5014 31.4932 16.799C31.9256 17.4541 32.3329 17.9369 32.3986 17.8717C32.4642 17.8067 32.3781 17.1385 32.2074 16.3866C31.8528 14.826 30.2667 12.9974 28.6861 12.3269C27.3019 11.7396 24.7702 11.784 23.5557 12.4172ZM12.5029 29.6156C8.35645 31.883 7.98293 37.3079 11.7682 40.2847C13.1713 41.3882 15.7436 41.7733 17.6203 41.161C19.0088 40.7081 21.2947 38.8132 21.9387 37.5815C22.6282 36.2632 22.5375 33.8669 21.7365 32.2305C20.9716 30.6683 18.893 29.2405 17.3837 29.2405C16.4702 29.2405 16.4702 29.2405 17.5748 29.9641C19.1346 30.9862 20.2519 33.3163 19.9495 34.9167C19.4759 37.422 16.5186 39.1533 14.2788 38.2359C12.958 37.6949 11.8186 36.2861 11.5478 34.8595C11.2559 33.3195 12.4015 30.9673 13.9326 29.9641C15.0372 29.2405 15.0372 29.2405 14.0951 29.2502C13.577 29.2556 12.8605 29.4202 12.5029 29.6156ZM20.3114 46.6903C18.8579 47.5042 17.555 49.4903 17.5469 50.9046C17.5417 51.8362 17.5417 51.8362 18.2731 50.7735C19.4596 49.0496 20.6368 48.3659 22.4179 48.3659C24.3118 48.3659 25.5582 49.1499 26.4336 50.8918C27.2444 52.5044 26.9255 54.0984 25.513 55.4951C24.5589 56.4385 24.2312 56.5626 22.6942 56.5613C20.6641 56.56 19.0904 55.7612 18.2542 54.3077C17.7045 53.353 17.1256 52.9908 17.3622 53.75C17.4311 53.9711 17.5725 54.5385 17.6769 55.011C17.9444 56.2225 19.3449 57.7609 20.89 58.5403C23.6682 59.9418 27.4924 58.6487 29.1552 55.7455C29.9595 54.3414 30.1425 51.7905 29.5502 50.2351C29.1354 49.1454 27.1426 47.041 25.9288 46.411C24.567 45.7041 21.8295 45.8401 20.3114 46.6903ZM39.3245 51.6102C35.679 53.1733 34.2116 57.5185 36.1972 60.8691C37.108 62.4056 39.0029 63.7264 40.839 64.1044C42.0841 64.3606 44.3496 63.8003 45.5842 62.9308C46.6619 62.1722 47.7743 60.1443 47.7743 58.9386C47.7743 58.0746 47.7743 58.0746 47.0429 59.1372C45.8199 60.9138 44.6919 61.5448 42.7378 61.5448C41.3328 61.5448 40.8335 61.3908 40.1303 60.7412C38.3372 59.0849 37.9728 57.6001 38.8898 55.6892C40.4239 52.4925 44.7917 52.6025 47.0351 55.8946C47.6498 56.7962 47.7743 56.8663 47.7743 56.3096C47.7743 52.6854 43.0041 50.0326 39.3245 51.6102Z" fill="white"/>
</svg>
