<svg width="38" height="38" viewBox="0 0 38 38" fill="none" xmlns="http://www.w3.org/2000/svg">
<path fill-rule="evenodd" clip-rule="evenodd" d="M20.9317 0.0451432C21.1366 0.0801278 21.7738 0.183593 22.3477 0.275C24.9064 0.682459 28.1386 2.06859 30.3033 3.68637C34.1308 6.54678 36.6921 10.5667 37.7218 15.3299C38.0927 17.0459 38.0927 20.9883 37.7218 22.7043C36.057 30.4048 30.3956 36.0594 22.6857 37.7221C20.9676 38.0926 17.0204 38.0926 15.3023 37.7221C9.49982 36.4707 4.70661 32.8707 2.08002 27.7915C0.561927 24.8558 0 22.4855 0 19.0171C0 15.5413 0.56148 13.1794 2.09031 10.2228C4.69886 5.17821 9.53664 1.54457 15.2677 0.325467C16.3324 0.0988856 20.1421 -0.0895849 20.9317 0.0451432ZM15.4913 4.11929C9.79673 5.49619 5.4869 9.81881 4.05168 15.5931C3.60602 17.3862 3.60602 20.648 4.05168 22.4411C5.4945 28.2459 9.75396 32.5002 15.5658 33.9412C17.3611 34.3864 20.6268 34.3864 22.4222 33.9412C28.2339 32.5002 32.4884 28.2511 33.9373 22.4411C34.3858 20.6423 34.3754 17.2296 33.916 15.5186C33.2274 12.9531 32.1283 10.8264 30.5188 8.94479C28.2649 6.30962 24.6037 4.33262 21.0519 3.83256C19.6862 3.64022 16.8724 3.78537 15.4913 4.11929Z" fill="#58A4FF"/>
<path d="M14.4815 28.3064L14.4798 28.3073C14.0422 28.5635 13.5388 28.5495 13.1438 28.3522C12.7495 28.1553 12.5 27.7989 12.5 27.38V10.62C12.5 10.2011 12.7495 9.84465 13.1438 9.64776C13.5388 9.45047 14.0422 9.43652 14.4798 9.69265L14.4818 9.69379L28.9214 18.0559L28.9228 18.0567C29.697 18.5132 29.6866 19.4891 28.9262 19.9252L28.924 19.9264L14.4815 28.3064Z" fill="#58A4FF" stroke-width="1"/>
</svg>
