<svg width="89" height="91" viewBox="0 0 89 91" fill="none" xmlns="http://www.w3.org/2000/svg">
<path fill-rule="evenodd" clip-rule="evenodd" d="M43.8127 0.458091C42.6186 1.8999 42.2488 7.46073 43.1439 10.5154C43.541 11.871 43.7749 12.1534 44.5 12.1534C45.7776 12.1534 46.3977 9.80235 46.2281 5.60142C46.0559 1.33278 44.9821 -0.953867 43.8127 0.458091ZM6.44796 6.40549C5.03231 6.92492 7.29073 10.7538 11.0716 14.2432C14.7039 17.5956 17.2551 18.6825 17.2551 16.8771C17.2551 14.4313 8.27845 5.73355 6.44796 6.40549ZM79.8988 7.65292C76.3108 9.93229 71.3486 15.8717 71.8779 17.2538C71.9919 17.5519 72.3795 17.7954 72.7388 17.7954C74.3938 17.7954 79.6637 13.1424 81.9396 9.67203C84.0629 6.43389 83.1848 5.56502 79.8988 7.65292ZM27.7426 18.5223C23.6813 19.5557 19.6378 22.4466 17.7582 25.66C14.8441 30.6425 15.5191 39.0236 19.4899 47.1681C21.5329 51.3585 23.7318 54.3549 28.7862 59.8375C35.187 66.7804 42.3738 72.7595 44.3184 72.7595C44.7757 72.7595 46.4344 71.8375 48.0037 70.7105C62.5027 60.2983 73.0022 45.9567 73.817 35.4495C74.5816 25.5927 66.9244 17.6713 57.178 18.2366C52.2928 18.5198 48.1112 21.2331 45.6788 25.6979C44.6453 27.5943 44.6453 27.5943 43.0288 25.1544C41.1816 22.3662 38.6718 20.311 35.782 19.2201C33.5029 18.3596 29.685 18.028 27.7426 18.5223ZM33.2715 21.8056C38.0252 22.7091 41.3545 25.7889 43.2511 31.0381C43.6877 32.2463 44.213 33.2909 44.4183 33.3594C44.6239 33.4282 45.1404 32.4344 45.5665 31.1513C47.6103 24.9972 51.8249 21.6589 57.5776 21.6378C61.0994 21.6251 63.5965 22.4939 65.8357 24.5109C72.7083 30.7025 70.6224 42.1219 60.2555 55.0603C57.3698 58.6618 48.197 67.946 45.511 69.9833C44.1611 71.0076 44.1611 71.0076 41.6131 68.7216C40.2117 67.4644 37.251 64.4388 35.0337 61.9982C23.8447 49.6811 19.3533 41.0816 19.8728 32.9706C20.2411 27.2216 23.8266 22.8408 29.0046 21.8144C31.1238 21.3943 31.1075 21.3943 33.2715 21.8056ZM1.45306 43.7701C0.268453 44.1276 0 44.3747 0 45.1071C0 46.3433 1.70553 46.8765 5.63061 46.8671C9.70754 46.8572 11.6245 46.2905 11.6245 45.0955C11.6245 43.9132 9.7079 43.3315 5.81224 43.3315C4.21388 43.3315 2.25224 43.5288 1.45306 43.7701ZM79.1468 43.6708C77.834 44.0522 77.0319 44.8749 77.297 45.5679C77.7737 46.8125 84.4185 47.3654 87.5469 46.4208C88.7246 46.0652 89 45.814 89 45.0955C89 44.3769 88.7246 44.1258 87.5469 43.7701C85.8447 43.2562 80.78 43.1965 79.1468 43.6708ZM13.7372 73.8326C11.1312 75.5761 7.94134 78.87 6.55367 81.2498C5.61063 82.8674 5.57612 83.0527 6.11666 83.5947C6.65756 84.1367 6.9064 84.0446 9.26363 82.4306C13.4212 79.5841 17.7026 74.4532 17.1418 72.9892C16.7959 72.0857 16.0847 72.2619 13.7372 73.8326ZM71.7449 73.2655C71.7449 74.396 74.3404 77.9032 76.9243 80.2641C79.2438 82.3833 82.1169 84.1873 82.6479 83.8582C84.3488 82.8052 79.5965 76.552 74.7596 73.4784C72.6516 72.1389 71.7449 72.0748 71.7449 73.2655ZM43.8686 78.2949C42.3389 80.1749 42.3259 87.8946 43.8494 89.7689C44.4673 90.5293 45.5291 89.624 45.9821 87.9503C46.5376 85.8981 46.4867 81.3033 45.8888 79.4986C45.39 77.9931 44.5309 77.4809 43.8686 78.2949Z" fill="white"/>
</svg>
