<svg width="24" height="25" viewBox="0 0 24 25" fill="none" xmlns="http://www.w3.org/2000/svg">
<path fill-rule="evenodd" clip-rule="evenodd" d="M10.1016 0.168371C5.16328 0.960818 1.25429 4.7115 0.180526 9.68759C-0.0601753 10.8031 -0.0601753 13.265 0.180526 14.3805C1.11298 18.702 4.10512 22.0581 8.25538 23.4379C12.5697 24.8722 17.3249 23.7025 20.5391 20.4164C21.9329 18.9913 22.7758 17.6161 23.3953 15.7565C25.4349 9.63372 22.1504 2.94048 16.0205 0.728049C14.2743 0.0977891 11.9255 -0.12428 10.1016 0.168371ZM9.01027 8.92434C9.69282 9.26007 10.1955 9.76615 10.1955 10.1175C10.1955 10.2471 10.0917 10.4568 9.9649 10.5835C9.64998 10.8982 9.25013 10.8846 8.86004 10.5461C8.39067 10.1388 8.13663 10.0362 7.59697 10.0362C7.08673 10.0362 6.7844 10.1718 6.35429 10.5939C6.05854 10.8841 5.64948 10.8799 5.35287 10.5835C5.02705 10.2581 5.06022 9.94439 5.46815 9.49331C6.07291 8.82466 6.75612 8.55331 7.72653 8.5964C8.25848 8.62005 8.53544 8.69082 9.01027 8.92434ZM17.6383 8.83038C17.8822 8.93551 18.2732 9.19784 18.5073 9.41343C18.9996 9.86668 19.0685 10.2353 18.7287 10.5967C18.4654 10.8766 18.0811 10.875 17.7423 10.5925C16.8541 9.85194 16.0015 9.81299 15.2632 10.4793C14.7218 10.9679 14.1665 10.9145 13.9712 10.3549C13.7799 9.8067 14.4125 9.07949 15.3821 8.73287C16.0047 8.51033 16.995 8.55313 17.6383 8.83038ZM18.3765 13.5286C18.7077 13.8596 18.72 14.089 18.4568 15.0379C17.8055 17.3857 15.8799 19.2365 13.5197 19.7834C12.7008 19.9731 11.2536 19.9714 10.4245 19.7797C8.0857 19.2392 6.15164 17.3709 5.50038 15.0234C5.24135 14.0896 5.25441 13.8586 5.58474 13.5286C5.85936 13.2542 5.85936 13.2542 11.9806 13.2542C18.1019 13.2542 18.1019 13.2542 18.3765 13.5286Z" fill="#58A4FF"/>
</svg>
