<svg width="22" height="21" viewBox="0 0 22 21" fill="none" xmlns="http://www.w3.org/2000/svg">
<path fill-rule="evenodd" clip-rule="evenodd" d="M10.2831 0.125441C9.66922 0.302447 9.58332 0.429443 8.19032 3.22026C7.1968 5.21078 6.80811 5.91241 6.6752 5.95477C6.57692 5.98612 5.25978 6.1912 3.74826 6.41048C1.30067 6.76567 0.964427 6.83308 0.673431 7.02656C0.094366 7.41158 -0.160831 8.24257 0.105658 8.87553C0.169729 9.02774 1.11699 10.0335 2.2722 11.176C3.40122 12.2926 4.3484 13.2806 4.37717 13.3716C4.40595 13.4626 4.22143 14.7477 3.96715 16.2274C3.71287 17.7071 3.50485 19.0332 3.50485 19.1743C3.50485 20.0941 4.43029 20.8158 5.34493 20.6093C5.52911 20.5676 6.74906 19.9665 8.05599 19.2734C9.67583 18.4142 10.5169 18.0131 10.6981 18.0131C10.8798 18.0131 11.7488 18.4293 13.4432 19.3279C15.6946 20.5217 15.9614 20.6426 16.3445 20.6426C17.1891 20.6426 17.8916 19.9759 17.8916 19.1743C17.8916 19.0332 17.6835 17.7071 17.4293 16.2274C17.175 14.7477 16.9905 13.4626 17.0192 13.3716C17.048 13.2806 17.9952 12.2926 19.1242 11.176C20.2794 10.0335 21.2267 9.02774 21.2908 8.87553C21.5567 8.24366 21.302 7.41158 20.725 7.0279C20.4369 6.83627 20.0887 6.76634 17.6369 6.40762C16.117 6.18523 14.799 5.97957 14.708 5.95049C14.5923 5.91367 14.1399 5.09126 13.2061 3.22026C11.7973 0.397757 11.7328 0.30396 11.0746 0.120819C10.6893 0.0135732 10.6706 0.0137413 10.2831 0.125441Z" fill="url(#paint0_linear_404_216)"/>
<defs>
<linearGradient id="paint0_linear_404_216" x1="10.6981" y1="0.0410156" x2="10.6981" y2="20.6448" gradientUnits="userSpaceOnUse">
<stop offset="0.0208333" stop-color="#FFD439"/>
<stop offset="0.416667" stop-color="#F3C319"/>
<stop offset="1" stop-color="#F39C19"/>
</linearGradient>
</defs>
</svg>
