<svg width="38" height="39" viewBox="0 0 38 39" fill="none" xmlns="http://www.w3.org/2000/svg">
<path fill-rule="evenodd" clip-rule="evenodd" d="M22.3477 0.316015C21.7738 0.224609 21.1366 0.121143 20.9317 0.0861588C20.1421 -0.0485692 16.3324 0.139901 15.2677 0.366482C9.53664 1.58559 4.69886 5.21922 2.09031 10.2639C0.561481 13.2204 0 15.5823 0 19.0581C0 22.5265 0.561928 24.8968 2.08002 27.8325C4.70661 32.9117 9.49982 36.5117 15.3023 37.7631C17.0204 38.1337 20.9676 38.1337 22.6857 37.7631C30.3956 36.1004 36.057 30.4458 37.7218 22.7453C38.0927 21.0293 38.0927 17.0869 37.7218 15.3709C36.6921 10.6077 34.1308 6.58779 30.3033 3.72739C28.1386 2.10961 24.9064 0.723474 22.3477 0.316015ZM4.05168 15.6341C5.4869 9.85982 9.79673 5.53721 15.4913 4.16031C16.8724 3.82639 19.6862 3.68124 21.0519 3.87358C24.6037 4.37364 28.2649 6.35064 30.5188 8.9858C32.1283 10.8674 33.2274 12.9941 33.916 15.5596C34.3754 17.2706 34.3858 20.6833 33.9373 22.4821C32.4884 28.2921 28.2339 32.5412 22.4222 33.9822C20.6268 34.4274 17.3611 34.4274 15.5658 33.9822C9.75396 32.5412 5.4945 28.2869 4.05168 22.4821C3.60602 20.689 3.60602 17.4272 4.05168 15.6341ZM21.4977 8.23949C25.488 9.11434 28.9688 12.632 29.812 16.6418C30.1049 18.0342 29.1055 18.0342 28.3873 18.0342H28.3867C27.5715 18.0342 27.1052 18.3829 27.1052 18.9922C27.1052 19.6528 27.4618 19.9317 28.3064 19.9317C29.0019 19.9317 30.0019 19.9317 30 20.3428C29.9968 21.012 29.5369 22.6428 29.0608 23.674C27.6328 26.7657 24.6464 29.1792 21.4045 29.8614C20.1063 30.1347 20.0528 29.2994 19.999 28.4577L19.999 28.4575C19.9951 28.396 19.9911 28.3345 19.9867 28.2734C19.9395 27.6204 19.8749 27.4476 19.5852 27.1981C19.3952 27.0347 19.1324 26.901 19.001 26.901C18.8697 26.901 18.6069 27.0347 18.4169 27.1981C18.1272 27.4476 18.0625 27.6204 18.0154 28.2734C18.011 28.3345 18.007 28.3961 18.0031 28.4577C17.9492 29.2994 17.8958 30.1347 16.5975 29.8614C13.3705 29.1824 10.3687 26.7643 8.95637 23.7064C8.47714 22.6687 8.00018 20.949 8.00018 20.2584C8.00018 19.8052 9.00018 19.8052 9.75886 19.8052C10.671 19.8052 11.0233 19.5434 11.0233 18.8657C11.0233 18.2375 10.5604 17.9078 9.67857 17.9078L9.60531 17.9078C8.83805 17.9092 7.92325 17.9107 8.1901 16.6418C8.86887 13.4135 11.286 10.4104 14.3427 8.99758C15.3409 8.53612 17.0923 8.04102 17.7261 8.04102C18.0859 8.04102 18.1159 9.07441 18.1159 9.47553C18.1159 10.5652 18.7509 11.1721 19.5644 10.8599C19.8704 10.7424 20.1391 10.1315 20.1391 9.55333C20.1391 8.96107 20.1821 7.95108 21.4977 8.23949ZM21.3191 15.2059C18.2117 19.0658 18.2117 19.0658 15.9596 17.445C13.4875 15.6657 13.0794 15.549 12.3811 16.4213C11.6477 17.337 11.8562 17.6116 15.0826 19.9823C17.6585 21.8749 18.1106 22.1445 18.5989 22.0794C19.095 22.0133 19.5731 21.4899 22.7695 17.5133C24.7551 15.0429 25.2089 14.4189 25.2701 14.1901C25.4914 13.3634 24.3582 12.4415 23.545 12.7866C23.3585 12.8656 23.0283 13.083 21.3191 15.2059Z" fill="#58A4FF"/>
</svg>
