<svg width="66" height="91" viewBox="0 0 66 91" fill="none" xmlns="http://www.w3.org/2000/svg">
<path fill-rule="evenodd" clip-rule="evenodd" d="M10.8326 0.532326C11.0673 0.852674 11.6148 2.9318 12.0492 5.1527C14.2034 16.1684 18.1583 21.3711 32.8252 32.4815C47.3167 43.459 52.5451 47.9964 57.132 53.576C65.4435 63.6853 68.0099 74.4363 64.419 84.1028C63.279 87.1708 62.8901 87.1825 63.8047 84.1212C66.0013 76.7694 64.3958 68.5229 59.2395 60.6739C55.319 54.7053 48.3105 48.4634 32.6831 37.0211C22.7234 29.7284 19.1619 26.7125 16.0601 22.9432C13.3432 19.6424 10.3876 13.9394 9.54786 10.3792C9.24806 9.10859 8.87165 8.06904 8.71083 8.06904C7.99898 8.06904 6.82339 14.7963 6.86616 18.6271C6.98287 29.0577 11.8322 37.4724 23.2459 47.0506C24.5997 48.1866 24.7066 48.3575 23.6914 47.7612C20.4355 45.8499 16.1247 42.283 12.8162 38.7623C8.60793 34.2846 5.61039 28.7315 4.48203 23.3237C3.10866 16.74 4.43748 7.52211 7.5544 2.01203C8.60481 0.155448 10.0708 -0.506338 10.8326 0.532326ZM4.10962 27.1374C2.26718 32.5537 2.12774 36.2502 3.60713 40.4717C5.9877 47.265 11.7828 52.7383 24.9975 60.6752C28.1817 62.5879 30.4228 64.1524 29.9778 64.1524C28.4801 64.1524 21.0511 61.4236 17.1208 59.4302C13.5655 57.627 13.223 57.5328 13.223 58.3574C13.223 62.0849 18.3926 66.123 33.8297 74.4538C38.1552 76.7878 41.6138 78.7789 41.5154 78.8786C40.795 79.604 30.7854 76.7694 26.0568 74.5009C24.5284 73.7678 23.2299 73.2168 23.1702 73.2765C23.111 73.3362 23.6607 74.4403 24.3921 75.7293C26.79 79.9589 31.6706 82.6963 44.1432 86.8074C48.7764 88.3347 52.3531 89.7174 52.0912 89.8808C51.8292 90.0436 49.4415 90.0903 46.7852 89.9839C38.9829 89.6726 31.4572 87.0362 26.9584 83.0386C24.4416 80.8024 22.5777 77.2458 22.5777 74.6795C22.5777 72.8938 22.4494 72.7237 19.3512 70.3929C17.4001 68.9253 15.4231 66.9355 14.3491 65.358C12.7552 63.0164 12.5708 62.4605 12.5436 59.9188C12.5138 57.0873 12.5138 57.0872 9.8383 54.8448C0.977101 47.4171 -1.91263 39.4986 1.22746 31.2494C2.07741 29.0168 4.78406 25.1552 4.10962 27.1374Z" fill="white"/>
</svg>
